<svg width="56" height="56" viewBox="0 0 56 56" fill="none" xmlns="http://www.w3.org/2000/svg" aria-label="Rootstrap mark">
<rect width="56" height="56" rx="12" fill="#191A1B"></rect>
<g transform="translate(8.5,17.2) scale(0.435)">
<path d="M82.3227 0L57.7614 24.3901C55.3205 17.9506 50.6993 12.5553 44.6902 9.12971C38.6813 5.70411 31.6592 4.4617 24.8286 5.61562C17.9979 6.76955 11.7844 10.2479 7.25419 15.4539C2.72394 20.6601 0.159217 27.2693 0 34.148H10.4295C10.6187 29.2731 12.6605 24.6504 16.1438 21.2104C19.627 17.7702 24.2932 15.7681 29.2034 15.607C34.1133 15.4458 38.9025 17.1376 42.607 20.3417C46.3114 23.546 48.6561 28.0245 49.169 32.8763L49.0669 32.9961H49.1968C49.1968 33.3924 49.2619 34.1018 49.2711 34.1018H62.475L89.6345 7.21474L82.3227 0Z" fill="#FFC83F"></path>
</g>
</svg>