<svg width="358" height="35" viewBox="0 0 358 35" fill="none" xmlns="http://www.w3.org/2000/svg">
<path d="M108.118 7.26074H117.397C122.964 7.26074 125.804 10.4673 125.804 15.1666C125.804 18.9259 124.059 21.856 120.459 22.7223L126.602 34.0833H121.786L116.219 23.4778H112.507V34.0833H108.118V7.26074ZM116.655 20.05C119.8 20.05 121.424 18.5482 121.424 15.3877C121.424 12.6234 120.023 10.7806 116.85 10.7806H112.6V19.9948L116.655 20.05Z" fill="#FFFFFF"></path>
<path d="M135.686 25.9932V15.618C135.686 9.85917 139.815 6.78162 145.16 6.78162C150.504 6.78162 154.699 9.35238 154.699 15.314V25.6984C154.699 31.6785 150.412 34.5348 145.188 34.5348C139.964 34.5348 135.677 32.0102 135.677 25.9932H135.686ZM150.189 25.8459V15.2403C150.189 12.2272 148.185 10.4673 145.076 10.4673C141.968 10.4673 140.149 12.5313 140.149 15.5812V25.8459C140.149 28.8866 142.005 30.8124 145.225 30.8124C145.892 30.8611 146.563 30.7656 147.19 30.5327C147.817 30.2998 148.386 29.935 148.858 29.4631C149.329 28.9913 149.692 28.4236 149.922 27.7994C150.152 27.1749 150.243 26.5085 150.189 25.8459Z" fill="#FFFFFF"></path>
<path d="M164.441 25.9932V15.618C164.441 9.85917 168.57 6.78162 173.915 6.78162C179.26 6.78162 183.464 9.35238 183.464 15.314V25.6984C183.464 31.6785 179.186 34.5348 173.961 34.5348C168.737 34.5348 164.451 32.0102 164.451 25.9932H164.441ZM178.963 25.8459V15.2403C178.963 12.2272 176.95 10.4673 173.85 10.4673C170.751 10.4673 168.923 12.5313 168.923 15.5812V25.8459C168.923 28.8866 170.778 30.8124 173.999 30.8124C174.667 30.8611 175.336 30.7656 175.964 30.5327C176.591 30.2998 177.16 29.935 177.631 29.4631C178.103 28.9913 178.467 28.4236 178.696 27.7994C178.926 27.1749 179.017 26.5085 178.963 25.8459Z" fill="#FFFFFF"></path>
<path d="M198.653 10.8819H191.267V7.26074H210.428V10.8819H203.116V34.0833H198.653V10.8819Z" fill="#FFFFFF"></path>
<path d="M217.275 31.4112L219.539 28.2507C221.589 29.9469 224.183 30.856 226.851 30.8124C229.393 30.8124 231.287 29.3104 231.287 27.2004C231.287 24.8691 229.505 23.7726 227.463 22.9525L223.668 21.4415C220.263 20.087 218.557 17.6452 218.557 14.3741C218.557 10.2369 221.738 6.81847 227.083 6.81847C229.908 6.69348 232.683 7.59424 234.886 9.35239L232.576 12.5129C230.563 11.0847 229.013 10.3291 226.851 10.3291C224.466 10.3291 222.722 11.4624 222.722 13.7568C222.722 15.5996 223.864 16.6501 226.174 17.6268L229.727 19.1288C233.56 20.7504 235.713 23.1184 235.713 26.4264C235.713 31.4297 231.509 34.5165 226.435 34.5165C223.082 34.6675 219.795 33.5513 217.239 31.3928" fill="#FFFFFF"></path>
<path d="M249.78 10.8819H242.394V7.26074H261.555V10.8819H254.243V34.0833H249.78V10.8819Z" fill="#FFFFFF"></path>
<path d="M270.518 7.26074H279.797C285.364 7.26074 288.204 10.4673 288.204 15.1666C288.204 18.9259 286.46 21.856 282.859 22.7223L289.002 34.0833H284.186L278.619 23.4778H274.906V34.0833H270.434L270.518 7.26074ZM279.037 20.05C282.182 20.05 283.806 18.5482 283.806 15.3877C283.806 12.6234 282.404 10.7806 279.221 10.7806H274.981V19.9948L279.037 20.05Z" fill="#FFFFFF"></path>
<path d="M304.09 7.18713H309.387L317.349 34.0834H312.877L310.872 26.8595H302.233L300.23 34.0466H296.101L304.09 7.18713ZM309.88 23.4779L306.586 11.5915H306.511L303.161 23.4779H309.88Z" fill="#FFFFFF"></path>
<path d="M325.904 7.27002H335.257C340.666 7.27002 343.247 10.882 343.247 15.3878C343.247 20.3174 340.463 24.04 334.839 24.04H330.367V34.0834H325.904V7.27002ZM333.968 20.6214C337.113 20.6214 338.886 18.7787 338.886 15.5352C338.886 12.8354 337.374 10.7991 334.496 10.7991H330.367V20.6214H333.968Z" fill="#FFFFFF"></path>
<path d="M82.3227 0L57.7614 24.3901C55.3205 17.9506 50.6993 12.5553 44.6902 9.12971C38.6813 5.70411 31.6592 4.4617 24.8286 5.61562C17.9979 6.76955 11.7844 10.2479 7.25419 15.4539C2.72394 20.6601 0.159217 27.2693 0 34.148H10.4295C10.6187 29.2731 12.6605 24.6504 16.1438 21.2104C19.627 17.7702 24.2932 15.7681 29.2034 15.607C34.1133 15.4458 38.9025 17.1376 42.607 20.3417C46.3114 23.546 48.6561 28.0245 49.169 32.8763L49.0669 32.9961H49.1968C49.1968 33.3924 49.2619 34.1018 49.2711 34.1018H62.475L89.6345 7.21474L82.3227 0Z" fill="#FFFFFF"></path>
<path d="M351.877 0C353.005 0 354.005 0.253411 354.876 0.760234C355.766 1.26706 356.459 1.96881 356.953 2.8655C357.468 3.76219 357.725 4.76609 357.725 5.8772C357.725 6.98831 357.468 7.99222 356.953 8.8889C356.459 9.7661 355.766 10.4581 354.876 10.9649C354.005 11.4718 353.005 11.7252 351.877 11.7252C350.749 11.7252 349.74 11.4718 348.85 10.9649C347.959 10.4581 347.257 9.7661 346.742 8.8889C346.247 7.99222 346 6.98831 346 5.8772C346 4.76609 346.247 3.76219 346.742 2.8655C347.257 1.96881 347.959 1.26706 348.85 0.760234C349.74 0.253411 350.749 0 351.877 0ZM351.877 10.7603C353.302 10.7603 354.45 10.3022 355.321 9.38598C356.211 8.4698 356.657 7.30021 356.657 5.8772C356.657 4.4542 356.211 3.2846 355.321 2.36842C354.45 1.45224 353.302 0.994153 351.877 0.994153C350.433 0.994153 349.265 1.45224 348.375 2.36842C347.504 3.2846 347.069 4.4542 347.069 5.8772C347.069 7.30021 347.504 8.4698 348.375 9.38598C349.265 10.3022 350.433 10.7603 351.877 10.7603ZM354.46 4.59065C354.46 5.07798 354.321 5.48734 354.044 5.81872C353.767 6.13061 353.381 6.33529 352.887 6.43276L354.668 8.94738L353.154 8.97662L351.521 6.49124H350.838V8.97662H349.562V2.69006H352.323C352.976 2.69006 353.49 2.8655 353.866 3.21638C354.262 3.54776 354.46 4.00585 354.46 4.59065ZM350.838 5.4386H352.234C352.511 5.4386 352.738 5.37038 352.916 5.23393C353.094 5.09747 353.184 4.8928 353.184 4.61989C353.184 4.34699 353.094 4.15205 352.916 4.03509C352.738 3.89864 352.511 3.83042 352.234 3.83042H350.838V5.4386Z" fill="#FFFFFF"></path>
</svg>